<?xml version="1.0" encoding="UTF-8"?>
<svg width="20px" height="20px" viewBox="0 0 20 20" version="1.1" xmlns="http://www.w3.org/2000/svg" xmlns:xlink="http://www.w3.org/1999/xlink">
    <title>24C7CEA6-9435-4886-84E8-DC0F486BF122</title>
    <defs>
        <filter x="-60.0%" y="-60.0%" width="220.0%" height="220.0%" filterUnits="objectBoundingBox" id="filter-1">
            <feOffset dx="0" dy="1" in="SourceAlpha" result="shadowOffsetOuter1"></feOffset>
            <feGaussianBlur stdDeviation="2.5" in="shadowOffsetOuter1" result="shadowBlurOuter1"></feGaussianBlur>
            <feColorMatrix values="0 0 0 0 0   0 0 0 0 0   0 0 0 0 0  0 0 0 0.15 0" type="matrix" in="shadowBlurOuter1" result="shadowMatrixOuter1"></feColorMatrix>
            <feMerge>
                <feMergeNode in="shadowMatrixOuter1"></feMergeNode>
                <feMergeNode in="SourceGraphic"></feMergeNode>
            </feMerge>
        </filter>
    </defs>
    <g id="Page-1" stroke="none" stroke-width="1" fill="none" fill-rule="evenodd">
        <g id="02.-BIS-Data-Privacy" transform="translate(-721.000000, -401.000000)" fill="#FFFFFF">
            <g id="Group-3" transform="translate(104.000000, 148.000000)">
                <g id="Rule-2" transform="translate(32.000000, 237.000000)">
                    <g id="Icon-/-Other-/-CB-Card" filter="url(#filter-1)" transform="translate(585.000000, 16.000000)">
                        <path d="M18,2.5 C19.1045695,2.5 20,3.3954305 20,4.5 L20,15.5 C20,16.6045695 19.1045695,17.5 18,17.5 L2,17.5 C0.8954305,17.5 1.3527075e-16,16.6045695 0,15.5 L0,4.5 C-1.3527075e-16,3.3954305 0.8954305,2.5 2,2.5 L18,2.5 Z M18.3333333,5.83333333 L1.66666667,5.83333333 L1.66666667,9.16666667 L18.3333333,9.16666667 L18.3333333,5.83333333 Z" id="Combined-Shape"></path>
                    </g>
                </g>
            </g>
        </g>
    </g>
</svg>