<?xml version="1.0" encoding="UTF-8"?>
<svg width="20px" height="20px" viewBox="0 0 20 20" version="1.1" xmlns="http://www.w3.org/2000/svg" xmlns:xlink="http://www.w3.org/1999/xlink">
    <title>C20FD287-7398-49D5-B23F-D607481289B4</title>
    <defs>
        <filter x="-60.0%" y="-60.0%" width="220.0%" height="220.0%" filterUnits="objectBoundingBox" id="filter-1">
            <feOffset dx="0" dy="1" in="SourceAlpha" result="shadowOffsetOuter1"></feOffset>
            <feGaussianBlur stdDeviation="2.5" in="shadowOffsetOuter1" result="shadowBlurOuter1"></feGaussianBlur>
            <feColorMatrix values="0 0 0 0 0   0 0 0 0 0   0 0 0 0 0  0 0 0 0.15 0" type="matrix" in="shadowBlurOuter1" result="shadowMatrixOuter1"></feColorMatrix>
            <feMerge>
                <feMergeNode in="shadowMatrixOuter1"></feMergeNode>
                <feMergeNode in="SourceGraphic"></feMergeNode>
            </feMerge>
        </filter>
    </defs>
    <g id="Page-1" stroke="none" stroke-width="1" fill="none" fill-rule="evenodd">
        <g id="02.-BIS-Data-Privacy" transform="translate(-721.000000, -473.000000)" fill="#FFFFFF">
            <g id="Group-3" transform="translate(104.000000, 148.000000)">
                <g id="Rule-3" transform="translate(32.000000, 309.000000)">
                    <g id="Icon-/-Other-/-Social-Card" filter="url(#filter-1)" transform="translate(585.000000, 16.000000)">
                        <path d="M18,2.5 C19.1045695,2.5 20,3.3954305 20,4.5 L20,15.5 C20,16.6045695 19.1045695,17.5 18,17.5 L2,17.5 C0.8954305,17.5 1.3527075e-16,16.6045695 0,15.5 L0,4.5 C-1.3527075e-16,3.3954305 0.8954305,2.5 2,2.5 L18,2.5 Z M5.83333333,10.8333333 C4.725,10.8333333 2.5,11.3916667 2.5,12.5 L2.5,13.3333333 L9.16666667,13.3333333 L9.16666667,12.5 C9.16666667,11.3916667 6.94166667,10.8333333 5.83333333,10.8333333 Z M15.8333333,10.8333333 L11.6666667,10.8333333 L11.6666667,12.5 L15.8333333,12.5 L15.8333333,10.8333333 Z M5.83333333,6.66666667 C4.91666667,6.66666667 4.16666667,7.41666667 4.16666667,8.33333333 C4.16666667,9.25 4.91666667,10 5.83333333,10 C6.75,10 7.5,9.25 7.5,8.33333333 C7.5,7.41666667 6.75,6.66666667 5.83333333,6.66666667 Z M17.5,7.5 L11.6666667,7.5 L11.6666667,9.16666667 L17.5,9.16666667 L17.5,7.5 Z" id="Combined-Shape"></path>
                    </g>
                </g>
            </g>
        </g>
    </g>
</svg>