<?xml version="1.0" encoding="UTF-8"?>
<svg width="20px" height="20px" viewBox="0 0 20 20" version="1.1" xmlns="http://www.w3.org/2000/svg" xmlns:xlink="http://www.w3.org/1999/xlink">
    <title>294D2990-144D-4ADF-9B7D-37B7A3EE8F78</title>
    <defs>
        <filter x="-60.0%" y="-60.0%" width="220.0%" height="220.0%" filterUnits="objectBoundingBox" id="filter-1">
            <feOffset dx="0" dy="1" in="SourceAlpha" result="shadowOffsetOuter1"></feOffset>
            <feGaussianBlur stdDeviation="2.5" in="shadowOffsetOuter1" result="shadowBlurOuter1"></feGaussianBlur>
            <feColorMatrix values="0 0 0 0 0   0 0 0 0 0   0 0 0 0 0  0 0 0 0.15 0" type="matrix" in="shadowBlurOuter1" result="shadowMatrixOuter1"></feColorMatrix>
            <feMerge>
                <feMergeNode in="shadowMatrixOuter1"></feMergeNode>
                <feMergeNode in="SourceGraphic"></feMergeNode>
            </feMerge>
        </filter>
    </defs>
    <g id="Page-1" stroke="none" stroke-width="1" fill="none" fill-rule="evenodd">
        <g id="02.-BIS-Data-Privacy" transform="translate(-721.000000, -329.000000)" fill="#FFFFFF">
            <g id="Group-3" transform="translate(104.000000, 148.000000)">
                <g id="Rule-1" transform="translate(32.000000, 165.000000)">
                    <g id="Icon-/-Other-/-Call" filter="url(#filter-1)" transform="translate(585.000000, 16.000000)">
                        <path d="M10.6265416,0 C12.3648793,0 13.9151186,0.342239989 15.2716654,1.01760292 C16.6282121,1.70138158 17.658908,2.66287958 18.3770386,3.91682446 C19.0881768,5.17076934 19.4496895,6.53902798 19.4496895,8.02089908 C19.4496895,9.78820394 18.9056723,11.3836875 17.8218334,12.8178694 C16.4575949,14.6174346 14.7157609,15.5214251 12.5844441,15.5214251 C12.0117576,15.5214251 11.5824176,15.4232415 11.2901307,15.2198611 C11.0013401,15.0164808 10.8027528,14.7240339 10.7090532,14.3327022 C9.89722289,15.1223788 8.95113641,15.5214251 7.88827503,15.5214251 C6.73800729,15.5214251 5.78912381,15.1223788 5.03393283,14.3327022 C4.27874185,13.5346097 3.89695085,12.4756294 3.89695085,11.164177 C3.89695085,9.52731608 4.35146394,8.04474367 5.26538488,6.70173224 C6.37299831,5.06487131 7.78688365,4.24153166 9.51543189,4.24153166 C10.7461135,4.24153166 11.6551397,4.71281296 12.2397134,5.65888211 L12.5040303,4.50171821 L15.2450938,4.50171821 L13.6773733,11.9622694 C13.5801774,12.4342521 13.5319291,12.735816 13.5319291,12.8739743 C13.5319291,13.0535101 13.5689894,13.1755383 13.6494033,13.2646048 C13.7263209,13.3543727 13.8235167,13.3950487 13.9332991,13.3950487 C14.2703381,13.3950487 14.6968811,13.1993828 15.2199208,12.7919209 C15.9268635,12.2715478 16.4953545,11.5541062 16.9295893,10.6746616 C17.3680196,9.78750263 17.5875844,8.86668069 17.5875844,7.91359843 C17.5875844,6.21221685 16.9750406,4.78645066 15.744359,3.62998808 C14.5094819,2.48965566 12.7886254,1.91177502 10.5838873,1.91177502 C8.70849635,1.91177502 7.12119679,2.29469107 5.81779309,3.0682376 C4.51858491,3.82565397 3.54033289,4.90847886 2.87045052,6.30058209 C2.21245541,7.68426958 1.88380749,9.13458167 1.88380749,10.6417 C1.88380749,12.0997265 2.25720747,13.4350235 2.98792467,14.6321621 C3.73122839,15.8377165 4.76192422,16.7087454 6.0898017,17.2627814 C7.42187468,17.809103 8.94484315,18.0854197 10.6573086,18.0854197 C12.3061423,18.0854197 13.7270201,17.8567922 14.9206414,17.392524 C16.1100672,16.9282558 17.0687402,16.2444772 17.7952619,15.3159408 L20,15.3159408 C19.3105386,16.7241742 18.249775,17.8238306 16.8212054,18.6303387 C15.1807627,19.5427449 13.1795066,20 10.8286251,20 C8.54207463,20 6.57298407,19.6163826 4.91715792,18.8428361 C3.25224151,18.0692896 2.02225917,16.9282558 1.21042886,15.4225402 C0.402094815,13.9147205 1.27129356e-05,12.2708465 1.27129356e-05,10.4944246 C-0.00277146068,8.55109054 0.451741629,6.73469388 1.37335433,5.04874115 C2.29077152,3.37120415 3.5501224,2.10954485 5.14930923,1.27007504 C6.74569905,0.422890806 8.56864616,0 10.6265416,0 Z M9.75387645,6.11613718 C9.16091168,6.11613718 8.61269897,6.34336209 8.10574206,6.80763027 C7.60228141,7.27119714 7.22049041,7.92271548 6.96456458,8.77761414 C6.70863875,9.6325128 6.58347284,10.3906305 6.58347284,11.0498632 C6.58347284,11.9307104 6.75758631,12.573813 7.11070802,12.9889894 C7.47291999,13.4048671 7.91065106,13.6166632 8.43858549,13.6166632 C8.83226376,13.6166632 9.19727273,13.5184796 9.54340193,13.323515 C9.80632027,13.1853566 10.0706371,12.9651448 10.3265629,12.6719966 C10.6915719,12.2477032 11.0083326,11.6291465 11.2719502,10.8149239 C11.536267,10.0084157 11.6747187,9.25099937 11.6747187,8.55038923 C11.6747187,7.76842696 11.4922142,7.16529911 11.126506,6.75012273 C10.764294,6.32793324 10.3062847,6.11613718 9.75387645,6.11613718 Z" id="Combined-Shape"></path>
                    </g>
                </g>
            </g>
        </g>
    </g>
</svg>